<?xml version="1.0" encoding="utf-8"?>
<!-- Generator: Adobe Illustrator 24.1.3, SVG Export Plug-In . SVG Version: 6.00 Build 0)  -->
<svg version="1.1" id="Layer_1" xmlns="http://www.w3.org/2000/svg" xmlns:xlink="http://www.w3.org/1999/xlink" x="0px" y="0px"
	 viewBox="0 0 691.5 258" style="enable-background:new 0 0 691.5 258;" xml:space="preserve">
<style type="text/css">
	.st0{clip-path:url(#SVGID_2_);}
	.st1{fill:#4D4D4D;}
	.st2{fill:#0AC18E;}
	.st3{fill:#FFFFFF;}
</style>
<g>
	<g>
		<g>
			<defs>
				<path id="SVGID_1_" d="M58,1h575c32,0,58,26,58,58v140c0,32-26,58-58,58H58c-32,0-58-26-58-58V59C0,27,26,1,58,1z"/>
			</defs>
			<clipPath id="SVGID_2_">
				<use xlink:href="#SVGID_1_"  style="overflow:visible;"/>
			</clipPath>
			<g class="st0">
				<g id="e8NZhc">
					
						<image style="overflow:visible;enable-background:new    ;" width="1999" height="746" id="e8NZhc-2" xlink:href="8B81AAC8.png"  transform="matrix(0.346 0 0 0.346 0.15 2.700000e-02)">
					</image>
				</g>
			</g>
		</g>
	</g>
</g>
<path class="st1" d="M288.4,183.5c-0.4-2.8-0.9-5.6-1.3-8.3s-0.9-5.2-1.4-7.4h-6.5c-1.6,2.3-3.1,4.6-4.7,6.9s-3.1,4.8-4.8,7.4
	s-3.3,5.4-5.1,8.3c-1.7,2.9-3.6,6.1-5.6,9.6h7.5c0.7-1.3,1.3-2.4,2-3.6s1.4-2.4,2-3.5h12.1c0.1,1.2,0.2,2.3,0.3,3.5s0.1,2.4,0.2,3.6
	h7.3c-0.3-2.5-0.6-5.2-0.9-8C289.1,189.2,288.8,186.3,288.4,183.5z M273.5,187.3c1.1-2.2,2.3-4.3,3.6-6.3c1.2-2.1,2.5-4.1,3.8-6.2
	c0.3,2.2,0.6,4.3,0.8,6.5c0.2,2.1,0.3,4.1,0.5,6H273.5z"/>
<path class="st1" d="M305.1,177.1c1-1.2,2.2-2.2,3.6-2.9c1.5-0.7,3.1-1.1,4.8-1.1c1.1,0,2.2,0.2,3.3,0.4c1.2,0.3,2.4,0.8,3.5,1.4
	l2.6-5.6c-1.4-0.8-2.9-1.4-4.5-1.8c-1.4-0.3-2.9-0.5-4.4-0.5c-2.9-0.1-5.7,0.6-8.3,1.8c-2.3,1.1-4.4,2.7-6.1,4.6
	c-1.7,1.9-3,4-3.8,6.4c-0.9,2.3-1.3,4.7-1.3,7.2c0,1.9,0.3,3.9,0.9,5.7c0.6,1.6,1.4,3.1,2.6,4.3c1.1,1.2,2.5,2.1,4.1,2.7
	c1.7,0.7,3.5,1,5.3,1c1.9,0,3.8-0.2,5.7-0.6c1.4-0.4,2.8-0.9,4.2-1.5l-0.8-5.9c-1.1,0.5-2.3,0.9-3.5,1.2c-1.3,0.3-2.7,0.5-4.1,0.5
	c-1.9,0.1-3.8-0.6-5.1-1.9c-1.2-1.3-1.8-3.3-1.8-6c0-1.7,0.3-3.5,0.8-5.1C303.3,179.8,304,178.4,305.1,177.1z"/>
<path class="st1" d="M333.2,177.1c1-1.2,2.2-2.2,3.6-2.9c1.5-0.7,3.1-1.1,4.8-1.1c1.1,0,2.2,0.2,3.3,0.4c1.2,0.3,2.4,0.8,3.5,1.4
	l2.6-5.6c-1.4-0.8-2.9-1.4-4.5-1.8c-1.4-0.3-2.9-0.5-4.4-0.5c-2.9-0.1-5.7,0.6-8.3,1.8c-2.3,1.1-4.4,2.7-6.1,4.6
	c-1.7,1.9-3,4-3.8,6.4c-0.9,2.3-1.3,4.7-1.3,7.2c0,1.9,0.3,3.9,0.9,5.7c0.6,1.6,1.4,3.1,2.6,4.3c1.1,1.2,2.5,2.1,4.1,2.7
	c1.7,0.7,3.5,1,5.3,1c1.9,0,3.8-0.2,5.7-0.6c1.4-0.4,2.8-0.9,4.2-1.5l-0.8-5.9c-1.1,0.5-2.3,0.9-3.5,1.2c-1.3,0.3-2.7,0.5-4.1,0.5
	c-1.9,0.1-3.8-0.6-5.1-1.9c-1.2-1.3-1.8-3.3-1.8-6c0-1.7,0.3-3.5,0.8-5.1C331.4,179.8,332.1,178.4,333.2,177.1z"/>
<polygon class="st1" points="372.2,186.2 373.6,180.3 361.4,180.3 362.9,173.8 376.7,173.8 378.2,167.8 357.1,167.8 349.4,200 
	349.4,200.1 371.5,200.1 373,194.1 358.1,194.1 360,186.2 "/>
<path class="st1" d="M402.2,169.8c-1.2-0.9-2.6-1.5-4-1.8c-1.7-0.4-3.5-0.6-5.3-0.6c-1.3,0-2.7,0.1-4.1,0.1
	c-1.5,0.2-3.1,0.4-4.8,0.7l-7.6,31.8h7.2l2.6-10.8h1.8c2.4,0,4.7-0.2,7-0.7c2-0.3,3.9-1,5.6-2.1c1.5-1,2.8-2.3,3.7-3.9
	c0.9-1.8,1.3-3.9,1.3-5.9c0-1.4-0.3-2.7-0.9-3.9C404.1,171.6,403.2,170.6,402.2,169.8z M398.2,177.3c0,0.9-0.2,1.9-0.6,2.7
	c-0.5,0.7-1.1,1.3-1.8,1.8c-0.8,0.5-1.7,0.9-2.7,1c-1.2,0.2-2.4,0.3-3.6,0.3h-1.8l2.2-9.5c0.4,0,0.7-0.1,1.1-0.1h1.3
	c1.5-0.1,3,0.2,4.4,0.8C397.7,174.9,398.3,176.1,398.2,177.3z"/>
<polygon class="st1" points="436.2,167.8 410.1,167.8 408.6,173.9 418,173.9 411.7,200 419,200 425.3,173.9 434.7,173.9 "/>
<polygon class="st1" points="455.1,186.2 456.5,180.3 444.3,180.3 445.8,173.8 459.6,173.8 461.1,167.8 440,167.8 432.3,200 
	432.3,200.1 454.4,200.1 455.9,194.1 441,194.1 442.9,186.2 "/>
<path class="st1" d="M487.1,171.1c-1.3-1.2-2.9-2.1-4.6-2.7c-2-0.6-4.1-0.9-6.2-0.9c-1.3,0-2.8,0.1-4.4,0.2s-3.3,0.4-5.1,0.7
	l-7.5,31.1c1.6,0.3,3.2,0.5,4.9,0.7c1.7,0.1,3.2,0.2,4.5,0.2c3.2,0,6.3-0.4,9.3-1.4c2.6-0.9,5-2.2,7-4c1.9-1.7,3.4-3.9,4.4-6.3
	c1-2.7,1.5-5.5,1.5-8.4c0-1.7-0.3-3.5-0.9-5.1C489.4,173.6,488.4,172.2,487.1,171.1z M482.5,186.4c-0.6,1.6-1.4,3.1-2.6,4.3
	c-1.1,1.2-2.5,2.1-4.1,2.7c-1.8,0.6-3.6,0.9-5.5,0.9h-1.5c-0.3,0-0.7-0.1-1-0.1l4.9-20.7c0.9-0.1,1.9-0.1,2.8-0.1
	c1.2,0,2.4,0.2,3.6,0.5c0.9,0.3,1.8,0.8,2.5,1.5c0.7,0.6,1.1,1.4,1.4,2.3c0.3,1,0.4,2,0.4,3C483.4,182.6,483.1,184.6,482.5,186.4z"
	/>
<polygon class="st1" points="529,167.8 526,180.2 514.5,180.2 517.5,167.8 510.2,167.8 502.5,200 509.7,200 513,186.3 524.5,186.3 
	521.2,200 528.5,200 536.3,167.8 "/>
<polygon class="st1" points="557.9,186.2 559.3,180.3 547.1,180.3 548.6,173.8 562.4,173.8 563.9,167.8 542.8,167.8 535.1,200 
	535.1,200.1 557.2,200.1 558.7,194.1 543.8,194.1 545.7,186.2 "/>
<path class="st1" d="M588.1,170.1c-1.2-0.9-2.5-1.6-3.9-2c-1.8-0.5-3.6-0.8-5.4-0.7c-1.3,0-2.7,0.1-4.2,0.2
	c-1.6,0.2-3.2,0.4-4.9,0.7l-7.6,31.8h7.2l2.8-11.8h3.6c1,1.7,1.8,3.5,2.4,5.4c0.8,2,1.5,4.2,2.2,6.3h7.8c-0.8-2.5-1.7-4.9-2.6-7.2
	c-0.8-2-1.7-4-2.7-5.9c1.5-0.4,2.9-1,4.1-1.9c1-0.7,1.9-1.5,2.6-2.5c0.6-0.8,1.1-1.8,1.3-2.8s0.3-2,0.3-3c0-1.2-0.2-2.5-0.7-3.6
	C589.9,171.9,589.1,170.9,588.1,170.1z M583.6,179.3c-0.3,0.6-0.7,1.2-1.3,1.6c-0.8,0.5-1.6,0.9-2.5,1.1c-1.2,0.3-2.5,0.4-3.8,0.4
	h-2.5l2.1-8.8c0.4,0,0.8-0.1,1.4-0.1h1.6c0.9,0,1.9,0.1,2.8,0.3c1.1,0.3,2,1.1,2.4,2.2c0.1,0.5,0.2,1,0.2,1.5
	C584,178.1,583.9,178.7,583.6,179.3z"/>
<polygon class="st1" points="619.2,173.8 620.7,167.8 599.6,167.8 591.9,200 591.9,200.1 614,200.1 615.5,194.1 600.6,194.1 
	602.5,186.2 614.7,186.2 616.1,180.3 603.9,180.3 605.4,173.8 "/>
<path class="st1" d="M181.7,99.1c5.5-3.4,8.3-7.9,8.3-13.6c0.1-3.4-0.8-6.7-2.4-9.6c-1.6-2.6-3.8-4.9-6.5-6.3
	c-3.1-1.7-6.5-2.8-9.9-3.4c-4.2-0.8-8.4-1.1-12.6-1c-3.5,0-7.1,0.1-11,0.4c-3.7,0.2-7.4,0.8-10.9,1.4v70.1c4,0.9,8.1,1.4,12.2,1.7
	c3.9,0.2,7.9,0.3,11.8,0.3c10.9,0,19.1-1.8,24.8-5.7c5.5-3.8,8.3-9.5,8.3-17.1c0-3.6-0.9-7-2.5-10.1
	C189.4,103.2,186.4,100.8,181.7,99.1z M152.3,94.3V78.6c1.3-0.1,2.7-0.2,4.3-0.2s3.1,0,4.5,0c4.3,0,7.6,0.5,9.8,1.7s3.4,3.2,3.4,6.2
	c0.2,2.5-1.1,4.9-3.2,6.2c-2.2,1.3-5.7,1.9-10.7,1.9L152.3,94.3z M172.6,123.8c-3.7,1.5-7.8,2.3-11.8,2.1c-1.6,0-3.2,0-4.6-0.1
	c-1.4-0.1-2.7-0.1-3.9-0.3v-18.7l0,0v0.1h10.2c4.6,0,8.2,0.6,10.7,2.2c2.5,1.4,3.8,3.8,3.8,7.1C177.1,119.8,175.6,122.4,172.6,123.8
	L172.6,123.8z"/>
<path class="st1" d="M207.5,58.4c-2.4,0-4.8,0.9-6.5,2.5c-1.9,1.7-2.9,4.2-2.8,6.7c-0.1,2.6,0.9,5,2.8,6.7c3.8,3.2,9.3,3.2,13.1,0
	c1.9-1.7,2.9-4.2,2.8-6.7c0.1-2.6-0.9-5-2.8-6.7C212.2,59.2,209.8,58.3,207.5,58.4z"/>
<rect x="199.8" y="83.4" class="st1" width="15.5" height="54.8"/>
<path class="st1" d="M252.9,125.9c-1.7,0.3-3.5,0.4-5.1,0.4c-3.5,0-5.8-1-6.9-2.9c-1.2-2.4-1.8-5.1-1.7-7.8V96.4h18.7v-13h-18.7
	V67.3l-15.6,2.5h-0.1V116c0,3.2,0.3,6.5,1,9.6c0.5,2.7,1.7,5.3,3.5,7.5c1.7,2.2,4.1,3.8,6.7,4.9c3.4,1.2,6.9,1.8,10.6,1.7
	c2.8,0,5.6-0.2,8.4-0.9c2.2-0.5,4.2-1.2,6.3-1.9l-2.2-12.1C256.2,125.1,254.6,125.6,252.9,125.9z"/>
<path class="st1" d="M296,125.9c-1.9,0.3-4,0.5-6.1,0.5c-5.2,0-9-1.3-11-4.1c-2.1-2.7-3.1-6.5-3.1-11.5c0-4.6,1.1-8.4,3.4-11.2
	s5.6-4.3,10.3-4.3c1.9,0,3.9,0.2,5.8,0.6c1.6,0.4,3.2,0.9,4.9,1.4l3.2-12.4c-2.3-1-4.6-1.7-7-2.3c-2.6-0.5-5.3-0.9-8-0.8
	c-4.1-0.1-8.1,0.6-11.9,2.3c-6.7,2.8-12,8.4-14.4,15.4c-1.3,3.6-1.9,7.4-1.9,11.1c0,3.9,0.5,7.8,1.5,11.5c1,3.4,2.7,6.5,5.1,9.1
	c2.5,2.7,5.5,4.8,9,6.1c4.1,1.6,8.5,2.4,13,2.3c3,0,6.1-0.3,9-0.9c2.3-0.4,4.6-1.1,6.8-1.9l-2.2-12.8
	C300.1,125,298.1,125.6,296,125.9z"/>
<path class="st1" d="M350.2,89.9c-2.4-2.5-5.3-4.5-8.5-5.8c-3.5-1.4-7.1-2.2-10.9-2.1c-3.7,0-7.4,0.6-10.8,2.1
	c-3.2,1.3-6.2,3.4-8.5,5.8c-2.5,2.6-4.3,5.6-5.6,9.1c-1.4,3.8-2.1,7.8-2.1,11.8c-0.1,4,0.6,8,1.9,11.8c1.2,3.4,3,6.5,5.5,9.2
	c2.4,2.6,5.3,4.5,8.5,5.8c7.1,2.8,15,2.8,22.1,0c3.2-1.3,6.2-3.4,8.5-5.8c2.4-2.6,4.2-5.7,5.4-9.2c1.3-3.8,1.9-7.8,1.8-11.8
	c0-4-0.6-8-1.9-11.8C354.5,95.6,352.7,92.5,350.2,89.9z M338.9,122.1c-3.2,4.5-9.5,5.6-14.1,2.4c-0.9-0.6-1.7-1.4-2.4-2.4
	c-1.9-2.8-2.9-6.6-2.9-11.4s1-8.5,2.9-11.2c3.4-4.5,9.8-5.5,14.4-2.1c0.8,0.5,1.5,1.3,2.1,2.1c1.9,2.7,2.9,6.5,2.9,11.2
	C341.8,115.5,340.9,119.3,338.9,122.1z"/>
<path class="st1" d="M371.6,58.4c-2.4,0-4.8,0.9-6.5,2.5c-1.9,1.7-2.9,4.2-2.8,6.7c-0.1,2.6,0.9,5,2.8,6.7c3.8,3.2,9.3,3.2,13.1,0
	c1.9-1.7,2.9-4.2,2.8-6.7c0.1-2.6-0.9-5-2.8-6.7C376.3,59.2,374,58.3,371.6,58.4z"/>
<rect x="363.9" y="83.4" class="st1" width="15.5" height="54.8"/>
<path class="st1" d="M434.4,97c-0.6-2.9-1.9-5.6-3.9-7.9c-1.9-2.3-4.4-4.1-7.4-5.1c-3.7-1.3-7.7-1.9-11.6-1.8c-4.4,0-8.8,0.3-13.1,1
	c-3.5,0.5-6.8,1.2-10.2,2.2v52.9h15.5V95.8c1-0.1,2.1-0.2,3.4-0.3c1.3-0.1,2.4-0.2,3.6-0.2c3.6,0,6.1,1,7.4,3.1
	c1.3,2.2,1.9,5.6,1.9,10.6v29.1h15.6v-31C435.5,103.7,435.2,100.4,434.4,97z"/>
<path class="st2" d="M494.6,122.5c-1.3,0.5-2.6,1-3.9,1.3c-1.6,0.4-3.4,0.8-5.1,1c-2.2,0.3-4.2,0.4-6.4,0.4
	c-3.2,0.1-6.6-0.5-9.6-1.8c-2.5-1.1-4.6-2.8-6.4-5c-1.6-2.2-2.9-4.8-3.6-7.5c-0.8-3-1.1-6.2-1.1-9.3c-0.1-3.6,0.4-7.2,1.6-10.6
	c1-2.7,2.5-5.1,4.4-7.1c1.8-1.8,4-3.1,6.4-4c2.4-0.8,4.9-1.2,7.4-1.2c3.4-0.1,6.8,0.3,10.1,1.2c2.7,0.8,5.3,1.7,7.8,3l4.8-13.1
	c-0.5-0.3-1.5-0.8-2.7-1.4c-1.5-0.8-3.1-1.3-4.8-1.8c-2.2-0.6-4.3-1.2-6.6-1.5c-2.7-0.5-5.5-0.8-8.3-0.6c-5,0-9.9,0.8-14.7,2.5
	c-4.3,1.6-8.3,4.1-11.7,7.4c-3.4,3.4-5.9,7.5-7.7,11.9c-1.9,5.1-2.9,10.5-2.8,16c0,12,3,21.3,9.2,27.8c6.2,6.5,15,9.8,26.8,9.8
	c4.9,0.1,9.8-0.5,14.6-1.6c3.4-0.8,6.6-2.1,9.6-3.8l-4.5-13.1C496.8,121.5,495.7,122.1,494.6,122.5z"/>
<path class="st2" d="M545.2,88c-2.1-2.1-4.5-3.7-7.4-4.5c-3.7-1.1-7.6-1.6-11.5-1.5c-1.8,0-3.7,0.1-5.5,0.2
	c-1.7,0.2-3.5,0.3-5.1,0.6c-1.6,0.3-3.1,0.5-4.4,0.9c-1.3,0.3-2.5,0.6-3.4,0.9l2.1,12.5c2.2-0.8,4.4-1.3,6.7-1.6
	c2.6-0.4,5.2-0.5,7.8-0.5c4,0,6.7,0.8,8.3,2.4c1.6,1.7,2.5,4,2.4,6.4v1.4c-1.2-0.3-2.5-0.5-3.8-0.6c-1.5-0.1-3.4-0.2-5.3-0.2
	c-2.9,0-5.8,0.3-8.6,0.9c-2.6,0.5-5.1,1.5-7.4,2.9c-2.2,1.3-3.9,3.1-5.1,5.3c-1.3,2.5-2.1,5.3-1.9,8.1c-0.1,2.9,0.4,5.8,1.6,8.4
	c1.1,2.3,2.8,4.1,4.9,5.5c2.3,1.5,4.8,2.5,7.5,3c3.1,0.6,6.4,1,9.6,1c4.9,0,9.6-0.3,14.4-1c4-0.6,7-1.2,9.3-1.7v-32.3
	c0-3.1-0.3-6.3-1.1-9.3C548.5,92.5,547,90,545.2,88z M535.4,127c-1.1,0.2-2.2,0.3-3.4,0.3c-1.4,0.1-2.8,0.1-4.3,0.1l0,0
	c-2.4,0.1-4.6-0.3-6.7-1.4c-1.6-0.9-2.5-2.6-2.5-5.1c0-1.1,0.3-2.2,0.9-3.1c0.5-0.9,1.4-1.5,2.3-1.9c1.1-0.5,2.2-0.9,3.4-1
	c1.4-0.2,2.7-0.2,4.1-0.2c1.2,0,2.3,0.1,3.5,0.2c1,0.1,1.9,0.2,2.8,0.4L535.4,127z"/>
<path class="st2" d="M594.2,112.4c-1.5-1.6-3.4-2.9-5.3-4c-2.7-1.4-5.5-2.7-8.4-3.8c-1.4-0.4-2.8-1.1-4.1-1.7
	c-0.9-0.4-1.7-0.9-2.6-1.4c-0.5-0.3-1-0.9-1.2-1.4s-0.3-1.1-0.3-1.6c0-2.7,2.4-4.1,7.2-4.1c2.4,0,4.8,0.2,7.1,0.8
	c1.9,0.4,4,1,5.8,1.6l2.7-12.1c-2.4-0.9-4.8-1.5-7.2-1.9c-3.1-0.6-6.4-0.9-9.6-0.9c-6.7,0-11.9,1.5-15.7,4.5
	c-3.8,2.9-5.9,7.5-5.7,12.2c-0.1,2.3,0.3,4.6,1.1,6.8c0.8,1.8,1.8,3.5,3.2,4.9c1.5,1.4,3.1,2.6,5.1,3.5c2.2,1.1,4.3,2.1,6.6,2.8
	c2.4,0.9,4.8,1.8,7,3.1c1.3,0.5,2.2,1.8,2.3,3.2c0.1,1.3-0.5,2.6-1.7,3.2c-1.9,0.6-4,1-6.1,0.9c-2.7,0-5.5-0.3-8.1-1
	c-2.8-0.6-5.5-1.4-8.1-2.5l-2.6,12.6c2.2,0.9,4.4,1.5,6.7,2.1c4,0.9,8.1,1.3,12.1,1.2c7.5,0,13.2-1.4,17.2-4.2
	c4.1-2.7,6.1-6.8,6.1-12.2c0-2.1-0.2-4.1-0.8-6.1C596.3,115.4,595.4,113.8,594.2,112.4z"/>
<path class="st2" d="M649.5,97c-0.6-2.9-1.9-5.6-3.8-7.9c-1.8-2.3-4.3-4-7-5.1c-3.6-1.3-7.2-1.9-11-1.8c-1.6,0-3.2,0.1-4.8,0.4
	c-1.4,0.2-2.7,0.6-4,1V57.3l-15.5,2.5v78.3h15.5V96.5c1.1-0.3,2.2-0.6,3.2-0.8c1.3-0.2,2.6-0.4,3.9-0.3c3.5,0,5.8,1,7.1,3.1
	s1.9,5.6,1.9,10.6v29.1h15.5v-31C650.7,103.8,650.4,100.4,649.5,97z"/>
<ellipse class="st2" cx="82.2" cy="99.6" rx="41.3" ry="41.3"/>
<path id="symbol_1_" class="st3" d="M95,85.8c-2.1-4.8-6.8-5.7-12.6-4.8l-1.8-7.2L76.2,75l1.8,7.2c-1.2,0.3-2.4,0.5-3.6,0.9
	l-1.8-7.2l-4.4,1.2l1.8,7.2c-1,0.2-9,2.3-9,2.3l1.2,4.8l3.2-0.9c1.8-0.4,2.6,0.4,3,1.3l5.2,19.9c0.1,0.5,0,1.6-1.3,1.9
	c0.1,0-3.2,0.9-3.2,0.9l0.4,5.5c0,0,7.9-2.1,9-2.3l1.9,7.4l4.4-1.2l-1.9-7.5c1.2-0.3,2.4-0.5,3.6-0.9l1.8,7.4l4.4-1.2l-1.9-7.4
	c6.8-1.6,11.7-5.9,10.6-12.5c-0.6-4-5-7.2-8.5-7.6C95.3,92.4,96.4,89.4,95,85.8L95,85.8z M92.9,103.1c0.9,6.5-8.1,7.4-11.1,8.1
	l-2.6-9.7C82.2,100.7,91.4,97.3,92.9,103.1z M87.5,89.9c1,5.8-6.8,6.5-9.3,7.1l-2.4-8.9C78.3,87.5,85.5,84.5,87.5,89.9z"/>
</svg>
