<?xml version="1.0" encoding="utf-8"?>
<!-- Generator: Adobe Illustrator 24.1.3, SVG Export Plug-In . SVG Version: 6.00 Build 0)  -->
<svg version="1.1" id="Layer_1" xmlns="http://www.w3.org/2000/svg" xmlns:xlink="http://www.w3.org/1999/xlink" x="0px" y="0px"
	 viewBox="0 0 694 261" style="enable-background:new 0 0 694 261;" xml:space="preserve">
<style type="text/css">
	.st0{fill:none;stroke:#0AC18E;stroke-width:5;}
	.st1{fill:#0AC18E;}
</style>
<path class="st0" d="M632.6,257.6H61.5C29.2,257.5,3.1,231.4,3,199.1V61.5C3.1,29.2,29.2,3.1,61.5,3h571.1
	c32.3,0.1,58.4,26.2,58.5,58.5v137.6C691,231.4,664.9,257.5,632.6,257.6z"/>
<path class="st1" d="M289.7,184.8c-0.4-2.8-0.9-5.6-1.3-8.3s-0.9-5.2-1.4-7.4h-6.5c-1.6,2.3-3.1,4.6-4.7,6.9s-3.1,4.8-4.8,7.4
	s-3.3,5.4-5.1,8.3c-1.7,2.9-3.6,6.1-5.6,9.6h7.5c0.7-1.3,1.3-2.4,2-3.6s1.4-2.4,2-3.5h12.1c0.1,1.2,0.2,2.3,0.3,3.5s0.1,2.4,0.2,3.6
	h7.3c-0.3-2.5-0.6-5.2-0.9-8C290.4,190.5,290.1,187.6,289.7,184.8z M274.8,188.6c1.1-2.2,2.3-4.3,3.6-6.3c1.2-2.1,2.5-4.1,3.8-6.2
	c0.3,2.2,0.6,4.3,0.8,6.5c0.2,2.1,0.3,4.1,0.5,6H274.8z"/>
<path class="st1" d="M306.4,178.4c1-1.2,2.2-2.2,3.6-2.9c1.5-0.7,3.1-1.1,4.8-1.1c1.1,0,2.2,0.2,3.3,0.4c1.2,0.3,2.4,0.8,3.5,1.4
	l2.6-5.6c-1.4-0.8-2.9-1.4-4.5-1.8c-1.4-0.3-2.9-0.5-4.4-0.5c-2.9-0.1-5.7,0.6-8.3,1.8c-2.3,1.1-4.4,2.7-6.1,4.6
	c-1.7,1.9-3,4-3.8,6.4c-0.9,2.3-1.3,4.7-1.3,7.2c0,1.9,0.3,3.9,0.9,5.7c0.6,1.6,1.4,3.1,2.6,4.3c1.1,1.2,2.5,2.1,4.1,2.7
	c1.7,0.7,3.5,1,5.3,1c1.9,0,3.8-0.2,5.7-0.6c1.4-0.4,2.8-0.9,4.2-1.5l-0.8-5.9c-1.1,0.5-2.3,0.9-3.5,1.2c-1.3,0.3-2.7,0.5-4.1,0.5
	c-1.9,0.1-3.8-0.6-5.1-1.9c-1.2-1.3-1.8-3.3-1.8-6c0-1.7,0.3-3.5,0.8-5.1C304.6,181.1,305.3,179.7,306.4,178.4z"/>
<path class="st1" d="M334.5,178.4c1-1.2,2.2-2.2,3.6-2.9c1.5-0.7,3.1-1.1,4.8-1.1c1.1,0,2.2,0.2,3.3,0.4c1.2,0.3,2.4,0.8,3.5,1.4
	l2.6-5.6c-1.4-0.8-2.9-1.4-4.5-1.8c-1.4-0.3-2.9-0.5-4.4-0.5c-2.9-0.1-5.7,0.6-8.3,1.8c-2.3,1.1-4.4,2.7-6.1,4.6
	c-1.7,1.9-3,4-3.8,6.4c-0.9,2.3-1.3,4.7-1.3,7.2c0,1.9,0.3,3.9,0.9,5.7c0.6,1.6,1.4,3.1,2.6,4.3c1.1,1.2,2.5,2.1,4.1,2.7
	c1.7,0.7,3.5,1,5.3,1c1.9,0,3.8-0.2,5.7-0.6c1.4-0.4,2.8-0.9,4.2-1.5l-0.8-5.9c-1.1,0.5-2.3,0.9-3.5,1.2c-1.3,0.3-2.7,0.5-4.1,0.5
	c-1.9,0.1-3.8-0.6-5.1-1.9c-1.2-1.3-1.8-3.3-1.8-6c0-1.7,0.3-3.5,0.8-5.1C332.7,181.1,333.4,179.7,334.5,178.4z"/>
<polygon class="st1" points="373.5,187.5 374.9,181.6 362.7,181.6 364.2,175.1 378,175.1 379.5,169.1 358.4,169.1 350.7,201.3 
	350.7,201.4 372.8,201.4 374.3,195.4 359.4,195.4 361.3,187.5 "/>
<path class="st1" d="M403.5,171.1c-1.2-0.9-2.6-1.5-4-1.8c-1.7-0.4-3.5-0.6-5.3-0.6c-1.3,0-2.7,0.1-4.1,0.1
	c-1.5,0.2-3.1,0.4-4.8,0.7l-7.6,31.8h7.2l2.6-10.8h1.8c2.4,0,4.7-0.2,7-0.7c2-0.3,3.9-1,5.6-2.1c1.5-1,2.8-2.3,3.7-3.9
	c0.9-1.8,1.3-3.9,1.3-5.9c0-1.4-0.3-2.7-0.9-3.9C405.4,172.9,404.5,171.9,403.5,171.1z M399.5,178.6c0,0.9-0.2,1.9-0.6,2.7
	c-0.5,0.7-1.1,1.3-1.8,1.8c-0.8,0.5-1.7,0.9-2.7,1c-1.2,0.2-2.4,0.3-3.6,0.3H389l2.2-9.5c0.4,0,0.7-0.1,1.1-0.1h1.3
	c1.5-0.1,3,0.2,4.4,0.8C399,176.2,399.6,177.4,399.5,178.6z"/>
<polygon class="st1" points="437.5,169.1 411.4,169.1 409.9,175.2 419.3,175.2 413,201.3 420.3,201.3 426.6,175.2 436,175.2 "/>
<polygon class="st1" points="456.4,187.5 457.8,181.6 445.6,181.6 447.1,175.1 460.9,175.1 462.4,169.1 441.3,169.1 433.6,201.3 
	433.6,201.4 455.7,201.4 457.2,195.4 442.3,195.4 444.2,187.5 "/>
<path class="st1" d="M488.4,172.4c-1.3-1.2-2.9-2.1-4.6-2.7c-2-0.6-4.1-0.9-6.2-0.9c-1.3,0-2.8,0.1-4.4,0.2s-3.3,0.4-5.1,0.7
	l-7.5,31.1c1.6,0.3,3.2,0.5,4.9,0.7c1.7,0.1,3.2,0.2,4.5,0.2c3.2,0,6.3-0.4,9.3-1.4c2.6-0.9,5-2.2,7-4c1.9-1.7,3.4-3.9,4.4-6.3
	c1-2.7,1.5-5.5,1.5-8.4c0-1.7-0.3-3.5-0.9-5.1C490.7,174.9,489.7,173.5,488.4,172.4z M483.8,187.7c-0.6,1.6-1.4,3.1-2.6,4.3
	c-1.1,1.2-2.5,2.1-4.1,2.7c-1.8,0.6-3.6,0.9-5.5,0.9h-1.5c-0.3,0-0.7-0.1-1-0.1l4.9-20.7c0.9-0.1,1.9-0.1,2.8-0.1
	c1.2,0,2.4,0.2,3.6,0.5c0.9,0.3,1.8,0.8,2.5,1.5c0.7,0.6,1.1,1.4,1.4,2.3c0.3,1,0.4,2,0.4,3C484.7,183.9,484.4,185.9,483.8,187.7z"
	/>
<polygon class="st1" points="530.3,169.1 527.3,181.5 515.8,181.5 518.8,169.1 511.5,169.1 503.8,201.3 511,201.3 514.3,187.6 
	525.8,187.6 522.5,201.3 529.8,201.3 537.6,169.1 "/>
<polygon class="st1" points="559.2,187.5 560.6,181.6 548.4,181.6 549.9,175.1 563.7,175.1 565.2,169.1 544.1,169.1 536.4,201.3 
	536.4,201.4 558.5,201.4 560,195.4 545.1,195.4 547,187.5 "/>
<path class="st1" d="M589.4,171.4c-1.2-0.9-2.5-1.6-3.9-2c-1.8-0.5-3.6-0.8-5.4-0.7c-1.3,0-2.7,0.1-4.2,0.2
	c-1.6,0.2-3.2,0.4-4.9,0.7l-7.6,31.8h7.2l2.8-11.8h3.6c1,1.7,1.8,3.5,2.4,5.4c0.8,2,1.5,4.2,2.2,6.3h7.8c-0.8-2.5-1.7-4.9-2.6-7.2
	c-0.8-2-1.7-4-2.7-5.9c1.5-0.4,2.9-1,4.1-1.9c1-0.7,1.9-1.5,2.6-2.5c0.6-0.8,1.1-1.8,1.3-2.8s0.3-2,0.3-3c0-1.2-0.2-2.5-0.7-3.6
	C591.2,173.2,590.4,172.2,589.4,171.4z M584.9,180.6c-0.3,0.6-0.7,1.2-1.3,1.6c-0.8,0.5-1.6,0.9-2.5,1.1c-1.2,0.3-2.5,0.4-3.8,0.4
	h-2.5l2.1-8.8c0.4,0,0.8-0.1,1.4-0.1h1.6c0.9,0,1.9,0.1,2.8,0.3c1.1,0.3,2,1.1,2.4,2.2c0.1,0.5,0.2,1,0.2,1.5
	C585.3,179.4,585.2,180,584.9,180.6z"/>
<polygon class="st1" points="620.5,175.1 622,169.1 600.9,169.1 593.2,201.3 593.2,201.4 615.3,201.4 616.8,195.4 601.9,195.4 
	603.8,187.5 616,187.5 617.4,181.6 605.2,181.6 606.7,175.1 "/>
<path class="st1" d="M183,100.4c5.5-3.4,8.3-7.9,8.3-13.6c0.1-3.4-0.8-6.7-2.4-9.6c-1.6-2.6-3.8-4.9-6.5-6.3
	c-3.1-1.7-6.5-2.8-9.9-3.4c-4.2-0.8-8.4-1.1-12.6-1c-3.5,0-7.1,0.1-11,0.4c-3.7,0.2-7.4,0.8-10.9,1.4v70.1c4,0.9,8.1,1.4,12.2,1.7
	c3.9,0.2,7.9,0.3,11.8,0.3c10.9,0,19.1-1.8,24.8-5.7c5.5-3.8,8.3-9.5,8.3-17.1c0-3.6-0.9-7-2.5-10.1
	C190.7,104.5,187.7,102.1,183,100.4z M153.6,95.6V79.9c1.3-0.1,2.7-0.2,4.3-0.2s3.1,0,4.5,0c4.3,0,7.6,0.5,9.8,1.7s3.4,3.2,3.4,6.2
	c0.2,2.5-1.1,4.9-3.2,6.2c-2.2,1.3-5.7,1.9-10.7,1.9L153.6,95.6z M173.9,125.1c-3.7,1.5-7.8,2.3-11.8,2.1c-1.6,0-3.2,0-4.6-0.1
	c-1.4-0.1-2.7-0.1-3.9-0.3v-18.7l0,0v0.1h10.2c4.6,0,8.2,0.6,10.7,2.2c2.5,1.4,3.8,3.8,3.8,7.1C178.4,121.1,176.9,123.7,173.9,125.1
	L173.9,125.1z"/>
<path class="st1" d="M208.8,59.7c-2.4,0-4.8,0.9-6.5,2.5c-1.9,1.7-2.9,4.2-2.8,6.7c-0.1,2.6,0.9,5,2.8,6.7c3.8,3.2,9.3,3.2,13.1,0
	c1.9-1.7,2.9-4.2,2.8-6.7c0.1-2.6-0.9-5-2.8-6.7S211.1,59.6,208.8,59.7z"/>
<rect x="201.1" y="84.7" class="st1" width="15.5" height="54.8"/>
<path class="st1" d="M254.2,127.2c-1.7,0.3-3.5,0.4-5.1,0.4c-3.5,0-5.8-1-6.9-2.9c-1.2-2.4-1.8-5.1-1.7-7.8V97.7h18.7v-13h-18.7
	V68.6l-15.6,2.5h-0.1v46.2c0,3.2,0.3,6.5,1,9.6c0.5,2.7,1.7,5.3,3.5,7.5c1.7,2.2,4.1,3.8,6.7,4.9c3.4,1.2,6.9,1.8,10.6,1.7
	c2.8,0,5.6-0.2,8.4-0.9c2.2-0.5,4.2-1.2,6.3-1.9l-2.2-12.1C257.5,126.4,255.9,126.9,254.2,127.2z"/>
<path class="st1" d="M297.3,127.2c-1.9,0.3-4,0.5-6.1,0.5c-5.2,0-9-1.3-11-4.1c-2.1-2.7-3.1-6.5-3.1-11.5c0-4.6,1.1-8.4,3.4-11.2
	s5.6-4.3,10.3-4.3c1.9,0,3.9,0.2,5.8,0.6c1.6,0.4,3.2,0.9,4.9,1.4l3.2-12.4c-2.3-1-4.6-1.7-7-2.3c-2.6-0.5-5.3-0.9-8-0.8
	c-4.1-0.1-8.1,0.6-11.9,2.3c-6.7,2.8-12,8.4-14.4,15.4c-1.3,3.6-1.9,7.4-1.9,11.1c0,3.9,0.5,7.8,1.5,11.5c1,3.4,2.7,6.5,5.1,9.1
	c2.5,2.7,5.5,4.8,9,6.1c4.1,1.6,8.5,2.4,13,2.3c3,0,6.1-0.3,9-0.9c2.3-0.4,4.6-1.1,6.8-1.9l-2.2-12.8
	C301.4,126.3,299.4,126.9,297.3,127.2z"/>
<path class="st1" d="M351.5,91.2c-2.4-2.5-5.3-4.5-8.5-5.8c-3.5-1.4-7.1-2.2-10.9-2.1c-3.7,0-7.4,0.6-10.8,2.1
	c-3.2,1.3-6.2,3.4-8.5,5.8c-2.5,2.6-4.3,5.6-5.6,9.1c-1.4,3.8-2.1,7.8-2.1,11.8c-0.1,4,0.6,8,1.9,11.8c1.2,3.4,3,6.5,5.5,9.2
	c2.4,2.6,5.3,4.5,8.5,5.8c7.1,2.8,15,2.8,22.1,0c3.2-1.3,6.2-3.4,8.5-5.8c2.4-2.6,4.2-5.7,5.4-9.2c1.3-3.8,1.9-7.8,1.8-11.8
	c0-4-0.6-8-1.9-11.8C355.8,96.9,354,93.8,351.5,91.2z M340.2,123.4c-3.2,4.5-9.5,5.6-14.1,2.4c-0.9-0.6-1.7-1.4-2.4-2.4
	c-1.9-2.8-2.9-6.6-2.9-11.4s1-8.5,2.9-11.2c3.4-4.5,9.8-5.5,14.4-2.1c0.8,0.5,1.5,1.3,2.1,2.1c1.9,2.7,2.9,6.5,2.9,11.2
	C343.1,116.8,342.2,120.6,340.2,123.4z"/>
<path class="st1" d="M372.9,59.7c-2.4,0-4.8,0.9-6.5,2.5c-1.9,1.7-2.9,4.2-2.8,6.7c-0.1,2.6,0.9,5,2.8,6.7c3.8,3.2,9.3,3.2,13.1,0
	c1.9-1.7,2.9-4.2,2.8-6.7c0.1-2.6-0.9-5-2.8-6.7S375.3,59.6,372.9,59.7z"/>
<rect x="365.2" y="84.7" class="st1" width="15.5" height="54.8"/>
<path class="st1" d="M435.7,98.3c-0.6-2.9-1.9-5.6-3.9-7.9c-1.9-2.3-4.4-4.1-7.4-5.1c-3.7-1.3-7.7-1.9-11.6-1.8
	c-4.4,0-8.8,0.3-13.1,1c-3.5,0.5-6.8,1.2-10.2,2.2v52.9H405V97.1c1-0.1,2.1-0.2,3.4-0.3c1.3-0.1,2.4-0.2,3.6-0.2
	c3.6,0,6.1,1,7.4,3.1c1.3,2.2,1.9,5.6,1.9,10.6v29.1h15.6v-31C436.8,105,436.5,101.7,435.7,98.3z"/>
<path class="st1" d="M495.9,123.8c-1.3,0.5-2.6,1-3.9,1.3c-1.6,0.4-3.4,0.8-5.1,1c-2.2,0.3-4.2,0.4-6.4,0.4
	c-3.2,0.1-6.6-0.5-9.6-1.8c-2.5-1.1-4.6-2.8-6.4-5c-1.6-2.2-2.9-4.8-3.6-7.5c-0.8-3-1.1-6.2-1.1-9.3c-0.1-3.6,0.4-7.2,1.6-10.6
	c1-2.7,2.5-5.1,4.4-7.1c1.8-1.8,4-3.1,6.4-4c2.4-0.8,4.9-1.2,7.4-1.2c3.4-0.1,6.8,0.3,10.1,1.2c2.7,0.8,5.3,1.7,7.8,3l4.8-13.1
	c-0.5-0.3-1.5-0.8-2.7-1.4c-1.5-0.8-3.1-1.3-4.8-1.8c-2.2-0.6-4.3-1.2-6.6-1.5c-2.7-0.5-5.5-0.8-8.3-0.6c-5,0-9.9,0.8-14.7,2.5
	c-4.3,1.6-8.3,4.1-11.7,7.4c-3.4,3.4-5.9,7.5-7.7,11.9c-1.9,5.1-2.9,10.5-2.8,16c0,12,3,21.3,9.2,27.8s15,9.8,26.8,9.8
	c4.9,0.1,9.8-0.5,14.6-1.6c3.4-0.8,6.6-2.1,9.6-3.8l-4.5-13.1C498.1,122.8,497,123.4,495.9,123.8z"/>
<path class="st1" d="M546.5,89.3c-2.1-2.1-4.5-3.7-7.4-4.5c-3.7-1.1-7.6-1.6-11.5-1.5c-1.8,0-3.7,0.1-5.5,0.2
	c-1.7,0.2-3.5,0.3-5.1,0.6c-1.6,0.3-3.1,0.5-4.4,0.9c-1.3,0.3-2.5,0.6-3.4,0.9l2.1,12.5c2.2-0.8,4.4-1.3,6.7-1.6
	c2.6-0.4,5.2-0.5,7.8-0.5c4,0,6.7,0.8,8.3,2.4c1.6,1.7,2.5,4,2.4,6.4v1.4c-1.2-0.3-2.5-0.5-3.8-0.6c-1.5-0.1-3.4-0.2-5.3-0.2
	c-2.9,0-5.8,0.3-8.6,0.9c-2.6,0.5-5.1,1.5-7.4,2.9c-2.2,1.3-3.9,3.1-5.1,5.3c-1.3,2.5-2.1,5.3-1.9,8.1c-0.1,2.9,0.4,5.8,1.6,8.4
	c1.1,2.3,2.8,4.1,4.9,5.5c2.3,1.5,4.8,2.5,7.5,3c3.1,0.6,6.4,1,9.6,1c4.9,0,9.6-0.3,14.4-1c4-0.6,7-1.2,9.3-1.7v-32.3
	c0-3.1-0.3-6.3-1.1-9.3C549.8,93.8,548.3,91.3,546.5,89.3z M536.7,128.3c-1.1,0.2-2.2,0.3-3.4,0.3c-1.4,0.1-2.8,0.1-4.3,0.1l0,0
	c-2.4,0.1-4.6-0.3-6.7-1.4c-1.6-0.9-2.5-2.6-2.5-5.1c0-1.1,0.3-2.2,0.9-3.1c0.5-0.9,1.4-1.5,2.3-1.9c1.1-0.5,2.2-0.9,3.4-1
	c1.4-0.2,2.7-0.2,4.1-0.2c1.2,0,2.3,0.1,3.5,0.2c1,0.1,1.9,0.2,2.8,0.4L536.7,128.3z"/>
<path class="st1" d="M595.5,113.7c-1.5-1.6-3.4-2.9-5.3-4c-2.7-1.4-5.5-2.7-8.4-3.8c-1.4-0.4-2.8-1.1-4.1-1.7
	c-0.9-0.4-1.7-0.9-2.6-1.4c-0.5-0.3-1-0.9-1.2-1.4s-0.3-1.1-0.3-1.6c0-2.7,2.4-4.1,7.2-4.1c2.4,0,4.8,0.2,7.1,0.8
	c1.9,0.4,4,1,5.8,1.6l2.7-12.1c-2.4-0.9-4.8-1.5-7.2-1.9c-3.1-0.6-6.4-0.9-9.6-0.9c-6.7,0-11.9,1.5-15.7,4.5
	c-3.8,2.9-5.9,7.5-5.7,12.2c-0.1,2.3,0.3,4.6,1.1,6.8c0.8,1.8,1.8,3.5,3.2,4.9c1.5,1.4,3.1,2.6,5.1,3.5c2.2,1.1,4.3,2.1,6.6,2.8
	c2.4,0.9,4.8,1.8,7,3.1c1.3,0.5,2.2,1.8,2.3,3.2c0.1,1.3-0.5,2.6-1.7,3.2c-1.9,0.6-4,1-6.1,0.9c-2.7,0-5.5-0.3-8.1-1
	c-2.8-0.6-5.5-1.4-8.1-2.5l-2.6,12.6c2.2,0.9,4.4,1.5,6.7,2.1c4,0.9,8.1,1.3,12.1,1.2c7.5,0,13.2-1.4,17.2-4.2
	c4.1-2.7,6.1-6.8,6.1-12.2c0-2.1-0.2-4.1-0.8-6.1C597.6,116.7,596.7,115.1,595.5,113.7z"/>
<path class="st1" d="M650.8,98.3c-0.6-2.9-1.9-5.6-3.8-7.9c-1.8-2.3-4.3-4-7-5.1c-3.6-1.3-7.2-1.9-11-1.8c-1.6,0-3.2,0.1-4.8,0.4
	c-1.4,0.2-2.7,0.6-4,1V58.6l-15.5,2.5v78.3h15.5V97.8c1.1-0.3,2.2-0.6,3.2-0.8c1.3-0.2,2.6-0.4,3.9-0.3c3.5,0,5.8,1,7.1,3.1
	s1.9,5.6,1.9,10.6v29.1h15.5v-31C652,105.1,651.7,101.7,650.8,98.3z"/>
<g>
	<path class="st1" d="M88.8,91.2c-2-5.4-9.2-2.4-11.7-1.8l2.4,8.9C82,97.7,89.8,97,88.8,91.2z"/>
	<path class="st1" d="M80.5,102.8l2.6,9.7c3-0.7,12-1.6,11.1-8.1C92.7,98.6,83.5,102,80.5,102.8z"/>
	<path class="st1" d="M83.5,59.6c-22.8,0-41.3,18.5-41.3,41.3c0,22.8,18.5,41.3,41.3,41.3s41.3-18.5,41.3-41.3
		C124.8,78.1,106.3,59.6,83.5,59.6z M92.1,115.6L94,123l-4.4,1.2l-1.8-7.4c-1.2,0.4-2.4,0.6-3.6,0.9l1.9,7.5l-4.4,1.2l-1.9-7.4
		c-1.1,0.2-9,2.3-9,2.3l-0.4-5.5c0,0,3.3-0.9,3.2-0.9c1.3-0.3,1.4-1.4,1.3-1.9l-5.2-19.9c-0.4-0.9-1.2-1.7-3-1.3l-3.2,0.9l-1.2-4.8
		c0,0,8-2.1,9-2.3l-1.8-7.2l4.4-1.2l1.8,7.2c1.2-0.4,2.4-0.6,3.6-0.9l-1.8-7.2l4.4-1.2l1.8,7.2c5.8-0.9,10.5,0,12.6,4.8
		c1.4,3.6,0.3,6.6-2.1,8.4c3.5,0.4,7.9,3.6,8.5,7.6C103.8,109.7,98.9,114,92.1,115.6z"/>
</g>
</svg>
