<svg xmlns="http://www.w3.org/2000/svg" xmlns:xlink="http://www.w3.org/1999/xlink" id="Layer_1" x="0" y="0" enable-background="new 0 0 962 762.8" version="1.1" viewBox="0 0 962 762.8" xml:space="preserve"><style type="text/css">.st0{fill:#4d4d4d}.st1{fill:#0ac18e}.st2{fill:#fff}</style><title>3-bitcoin-cash-logo-ot</title><path d="M45.4,761.6c-7.4,0-14.8-0.2-22.1-0.7c-7.7-0.5-15.4-1.6-22.9-3.2V626.8c6.8-1.2,13.6-2.1,20.5-2.6	c7.4-0.6,14.3-0.9,20.7-0.9c7.9-0.1,15.9,0.6,23.7,1.9c6.5,1,12.8,3.1,18.6,6.3c5,2.8,9.2,6.9,12.2,11.8c2.9,4.9,4.4,10.9,4.4,18	c0,10.8-5.2,19.3-15.6,25.5c8.6,3.2,14.4,7.7,17.5,13.2c3.2,5.8,4.8,12.3,4.7,18.9c0,14.2-5.2,24.8-15.5,31.9	C81.1,758.1,65.8,761.6,45.4,761.6z M30,677.9h14.8c9.4,0,16-1.2,20.1-3.6c4-2.4,6-6.3,6-11.6c0-5.5-2.1-9.3-6.2-11.5	c-4.2-2.2-10.3-3.3-18.3-3.3c-2.6,0-5.4,0-8.4,0.1s-5.6,0.2-8,0.5L30,677.9z M30,701.1V736c2.2,0.3,4.6,0.5,7.2,0.6s5.5,0.2,8.6,0.2	c9.1,0,16.4-1.3,22-3.9s8.4-7.4,8.4-14.4c0-6.2-2.3-10.7-7-13.3c-4.7-2.7-11.4-4-20.1-4L30,701.1z" class="st0"/><path d="M150.4,627.8c0,5.3-1.7,9.5-5.2,12.6c-7,6.1-17.4,6.1-24.4,0c-3.4-3.1-5.2-7.2-5.2-12.6c0-5.3,1.7-9.5,5.2-12.6	c3.3-3,7.7-4.6,12.2-4.6c4.5-0.1,8.9,1.6,12.2,4.6C148.7,618.3,150.4,622.5,150.4,627.8z M147.6,759.9h-29V657.4h29V759.9z" class="st0"/><path d="M163.2,631.9l29-4.7v30.2h34.9v24.2h-34.9v36c0,6.1,1.1,11,3.2,14.6s6.5,5.5,13,5.5c3.2,0,6.4-0.3,9.6-0.9	c3.1-0.6,6.1-1.4,9.1-2.4l4.1,22.6c-3.8,1.5-7.7,2.8-11.7,3.7c-5.2,1.1-10.5,1.7-15.8,1.6c-7.9,0-14.5-1.1-19.7-3.2	c-4.9-1.9-9.2-5-12.5-9c-3.2-4.1-5.5-8.8-6.5-13.9c-1.3-5.9-1.9-12-1.9-18.1L163.2,631.9L163.2,631.9z" class="st0"/><path d="M231.2,708.7c-0.1-7.1,1.2-14.2,3.6-20.9c4.6-12.9,14.4-23.3,27-28.7c7-3,14.6-4.5,22.2-4.3	c5,0,10.1,0.5,15,1.5c4.5,1,8.9,2.4,13.2,4.2l-6,23.2c-2.9-1.1-6-2-9-2.7c-3.6-0.8-7.2-1.2-10.9-1.2c-8.6,0-15,2.7-19.2,8	s-6.3,12.3-6.3,21c0,9.2,2,16.4,5.9,21.4c4,5.1,10.9,7.6,20.7,7.6c3.8,0,7.6-0.3,11.3-1c3.8-0.6,7.5-1.6,11.1-3.1l4.1,23.8	c-4.1,1.6-8.4,2.9-12.7,3.7c-5.5,1.1-11.2,1.6-16.8,1.6c-9.4,0-17.4-1.4-24.2-4.2c-6.3-2.5-12.1-6.4-16.7-11.4	c-4.4-4.9-7.7-10.7-9.5-17C232.1,723.2,231.2,716,231.2,708.7z" class="st0"/><path d="M413.8,708.5c0.1,7.5-1.1,15-3.5,22.1c-2.1,6.4-5.6,12.2-10.1,17.1c-4.5,4.8-9.9,8.5-15.9,11	c-13.3,5.2-28,5.2-41.3,0c-6-2.5-11.4-6.2-15.9-11c-4.6-4.9-8.1-10.8-10.3-17.1c-2.5-7.1-3.8-14.6-3.7-22.1c-0.1-7.5,1.2-15,3.8-22	c2.3-6.3,5.9-12.1,10.5-16.9c4.5-4.7,10-8.4,16-10.9c6.4-2.6,13.3-4,20.2-3.9c7-0.1,13.9,1.2,20.4,3.9c6,2.5,11.4,6.2,15.9,10.9	c4.5,4.9,8.1,10.6,10.3,16.9C412.6,693.6,413.9,701,413.8,708.5z M384.2,708.5c0-9-1.8-16-5.4-21.1s-8.7-7.7-15.3-7.7	s-11.8,2.6-15.4,7.7s-5.5,12.2-5.5,21.1c0,9,1.8,16.1,5.5,21.3c3.6,5.3,8.8,7.9,15.4,7.9s11.7-2.6,15.3-7.9S384.2,717.4,384.2,708.5	z" class="st0"/><path d="M457.2,627.8c0,5.3-1.7,9.5-5.2,12.6c-7,6.1-17.4,6.1-24.4,0c-3.4-3.1-5.2-7.2-5.2-12.6c0-5.3,1.7-9.5,5.2-12.6	c3.3-3,7.7-4.6,12.2-4.6c4.5-0.1,8.9,1.6,12.2,4.6C455.5,618.3,457.2,622.5,457.2,627.8z M454.5,759.9h-29V657.4h29V759.9z" class="st0"/><path d="M471,660.9c6.3-1.7,12.7-3.1,19.1-4c8.1-1.3,16.3-1.9,24.5-1.9c8.7,0,15.9,1.1,21.7,3.4c5.3,2,10,5.3,13.7,9.6	c3.5,4.3,5.9,9.4,7.2,14.8c1.5,6.3,2.2,12.7,2.1,19.1v57.9h-29v-54.4c0-9.4-1.2-16-3.7-19.9s-7.1-5.8-13.8-5.8	c-2.1,0-4.3,0.1-6.6,0.3c-2.3,0.2-4.4,0.4-6.2,0.7v79.1h-29L471,660.9L471,660.9z" class="st0"/><path d="M638.6,762.6c-22,0-38.7-6.1-50.2-18.3c-11.5-12.2-17.2-29.5-17.2-52c-0.2-10.2,1.6-20.4,5.3-29.9	c3.2-8.3,8.1-15.9,14.4-22.2c6.2-6.1,13.6-10.7,21.8-13.7c8.8-3.2,18.1-4.8,27.5-4.7c5.2-0.1,10.5,0.4,15.6,1.3	c4.2,0.7,8.3,1.7,12.3,2.9c3,0.9,6,2,8.8,3.4c2.3,1.2,4,2.1,5.1,2.7l-8.8,24.5c-4.6-2.4-9.5-4.3-14.5-5.6	c-6.1-1.6-12.5-2.4-18.8-2.3c-4.7,0-9.3,0.8-13.7,2.3c-4.5,1.6-8.5,4.2-11.9,7.5c-3.7,3.8-6.5,8.3-8.3,13.3	c-2.1,5.5-3.1,12.1-3.1,19.9c0,5.9,0.6,11.7,2,17.4c1.2,5,3.5,9.8,6.6,13.9c3.2,4,7.3,7.2,12,9.3c4.9,2.3,10.9,3.4,17.9,3.4	c4,0,8-0.3,11.9-0.8c3.2-0.4,6.3-1.1,9.4-1.9c2.5-0.6,4.9-1.4,7.2-2.4c2.1-0.9,4-1.8,5.6-2.5l8.4,24.4c-4.3,2.6-10.3,4.9-18.1,7	C656.9,761.7,647.8,762.8,638.6,762.6z" class="st1"/><path d="M729.4,654.7c8.6,0,15.7,1,21.4,2.9c5.2,1.6,9.9,4.5,13.7,8.4c3.5,3.7,6,8.3,7.3,13.2	c1.5,5.6,2.2,11.5,2.1,17.3v60.4c-4.2,0.9-9.9,2-17.3,3.2c-8.9,1.3-17.9,2-26.9,1.9c-6,0.1-12.1-0.5-18-1.8c-4.9-1-9.7-3-13.9-5.7	c-3.9-2.6-7-6.2-9-10.4c-2.1-4.3-3.1-9.5-3.1-15.8c-0.2-5.3,1.1-10.5,3.6-15.2c2.3-4.1,5.6-7.5,9.6-9.9c4.2-2.6,8.9-4.4,13.8-5.4	c5.3-1.1,10.8-1.7,16.2-1.7c3.3,0,6.7,0.2,10,0.5c2.4,0.2,4.8,0.6,7.1,1.3v-2.7c0-4.9-1.5-8.9-4.5-11.9s-8.2-4.5-15.6-4.5	c-4.9,0-9.8,0.4-14.6,1.1c-4.3,0.6-8.4,1.6-12.5,3l-3.7-23.4c1.7-0.5,3.8-1.1,6.3-1.7s5.3-1.1,8.3-1.6s6.1-0.8,9.4-1.2	C722.6,654.9,726,654.7,729.4,654.7z M731.7,739.6c2.9,0,5.6-0.1,8.2-0.2c2.1,0,4.2-0.2,6.2-0.6v-22c-1.8-0.4-3.5-0.6-5.3-0.8	c-2.1-0.3-4.3-0.4-6.4-0.4c-2.6,0-5.1,0.2-7.7,0.5c-2.2,0.2-4.3,0.9-6.3,1.9c-1.7,0.8-3.2,2.1-4.3,3.7c-1.1,1.7-1.6,3.8-1.6,5.8	c0,4.5,1.5,7.7,4.6,9.4C722.2,738.8,726.4,739.6,731.7,739.6L731.7,739.6z" class="st1"/><path d="M819,739.1c5.3,0,9.1-0.5,11.3-1.6c2.2-1,3.3-3.1,3.3-6c0-2.3-1.4-4.4-4.3-6.1c-4.2-2.4-8.6-4.3-13.1-5.9	c-4.2-1.5-8.4-3.3-12.4-5.3c-3.5-1.6-6.6-3.8-9.4-6.5c-2.6-2.6-4.7-5.7-6-9.1c-1.5-4.1-2.2-8.4-2.1-12.7c0-9.6,3.6-17.2,10.7-22.8	s16.9-8.4,29.4-8.4c6,0,12,0.6,17.9,1.7c4.6,0.8,9.2,2,13.6,3.6l-5.1,22.6c-3.6-1.2-7.3-2.3-11-3.1c-4.4-1-8.8-1.4-13.3-1.4	c-9.1,0-13.6,2.5-13.6,7.6c0,1.1,0.2,2.1,0.6,3.1c0.5,1,1.3,1.9,2.3,2.6c1.5,1,3.1,1.9,4.8,2.7c2.5,1.2,5.1,2.3,7.7,3.2	c5.4,2,10.7,4.3,15.8,7c3.6,1.9,7,4.4,9.8,7.4c2.3,2.5,4.1,5.5,5.1,8.8c1.1,3.7,1.6,7.5,1.5,11.3c0,10.1-3.8,17.8-11.4,22.9	c-7.6,5.2-18.3,7.8-32.2,7.8c-7.6,0.1-15.3-0.6-22.7-2.3c-4.3-1.1-8.5-2.4-12.6-3.9l4.9-23.6c4.9,1.9,10,3.5,15.2,4.6	C808.7,738.5,813.9,739.1,819,739.1z" class="st1"/><path d="M873.3,759.9V613.4l29-4.7v49.1c2.5-0.8,5-1.4,7.5-1.9c2.9-0.6,5.9-0.9,8.9-0.9c8.3,0,15.2,1.1,20.7,3.4	c5.1,2,9.7,5.3,13.2,9.6c3.4,4.4,5.8,9.4,7,14.8c1.4,6.3,2.1,12.7,2,19.1v57.9h-29v-54.4c0-9.4-1.2-16-3.6-19.9s-6.9-5.8-13.3-5.8	c-2.5,0-4.9,0.2-7.3,0.7c-2.1,0.4-4.1,0.9-6.1,1.5v77.9h-29L873.3,759.9L873.3,759.9z" class="st1"/><path d="M689.3,594.3c93.5-65.6,154.6-174.2,154.6-297.1S782.8,65.6,689.3,0H962v594.3H689.3z" class="st1"/><path d="M118.4,297.1c0,122.9,61.1,231.5,154.6,297.1H0V0h273C179.5,65.6,118.4,174.2,118.4,297.1z" class="st1"/><circle cx="481" cy="297" r="296.9" class="st1"/><path id="symbol_1_" d="M573.9,197.1c-15-34-49.3-41.1-91.4-34.1L469,110.6l-31.9,8.2l13.3,52.3	c-8.4,2.2-17,3.9-25.5,6.3l-13.3-52l-31.9,8.2l13.5,52.4c-6.9,1.9-64.3,16.7-64.3,16.7l8.8,34.1c0,0,23.4-6.5,23.2-6	c12.9-3.3,19.1,3.1,22,9.2l37.1,143.6c0.5,4.2-0.2,11.3-9.3,13.7c0.5,0.3-23.2,6-23.2,6l3.5,39.7c0,0,56.9-14.5,64.4-16.4l13.7,53	l31.9-8.2l-13.7-53.4c8.8-2.1,17.3-4.2,25.6-6.3l13.6,53.1l31.9-8.2l-13.7-52.9c49.1-11.9,83.8-42.9,76.6-90.2	c-4.5-28.5-35.7-52-61.6-54.6C575.7,244.7,583.8,224,573.9,197.1L573.9,197.1z M558.6,322c6.3,46.9-58.8,52.6-80.4,58.2l-18.7-70.2	C481.1,304.5,547.9,280.7,558.6,322z M519.3,226.5c6.7,41.7-49,46.5-67,51.2l-17.1-63.6C453.3,209.4,505.6,187.9,519.3,226.5z" class="st2"/></svg>