<svg xmlns="http://www.w3.org/2000/svg" xmlns:xlink="http://www.w3.org/1999/xlink" id="Layer_1" x="0" y="0" enable-background="new 0 0 788 788" version="1.1" viewBox="0 0 788 788" xml:space="preserve"><style type="text/css">.st0{fill:#0ac18e}.st1{fill:#fff}</style><title>12-bitcoin-cash-square-crop</title><path d="M287,0.2H-0.5v289.5C36.5,149.1,146.8,38.2,287,0.2z" class="st0"/><path d="M788.5,289.7V0.2H501C641.2,38.2,751.5,149.1,788.5,289.7z" class="st0"/><path d="M501,787.8h287.5V498.3C751.5,638.9,641.2,749.8,501,787.8z" class="st0"/><path d="M-0.5,498.3v289.5H287C146.8,749.8,36.5,638.9-0.5,498.3z" class="st0"/><circle cx="394" cy="394" r="335" class="st0"/><path id="symbol_1_" d="M498.5,281.5c-16.8-38.2-55.5-46.3-102.9-38.4l-15.2-59l-35.9,9.3l15,58.8	c-9.4,2.4-19.1,4.4-28.7,7.1l-15-58.5l-35.9,9.3l15.2,59c-7.7,2.2-72.4,18.8-72.4,18.8l9.9,38.4c0,0,26.4-7.4,26.1-6.8	c14.6-3.8,21.5,3.5,24.7,10.4l41.8,161.7c0.5,4.7-0.3,12.7-10.4,15.4c0.6,0.3-26.1,6.7-26.1,6.7l3.9,44.8c0,0,64.1-16.4,72.5-18.5	l15.4,59.7l35.9-9.3l-15.4-60.1c9.9-2.3,19.5-4.7,28.8-7.1l15.3,59.8l35.9-9.3l-15.4-59.6c55.3-13.4,94.3-48.3,86.3-101.6	c-5.1-32.1-40.2-58.5-69.4-61.5C500.5,335.1,509.6,311.9,498.5,281.5L498.5,281.5z M481.2,422.2c7.1,52.8-66.2,59.3-90.5,65.6	l-21.1-79C394,402.5,469.2,375.7,481.2,422.2z M437,314.7c7.6,46.9-55.2,52.4-75.4,57.6l-19.2-71.7	C362.7,295.5,421.6,271.2,437,314.7z" class="st1"/></svg>