<svg xmlns="http://www.w3.org/2000/svg" width="694" height="261"><g fill-rule="nonzero" fill="none"><path d="M632.6 257.6H61.5c-32.277-.077-58.423-26.223-58.5-58.5V61.5C3.11 29.237 29.237 3.11 61.5 3h571.1c32.277.077 58.423 26.223 58.5 58.5v137.6c-.077 32.277-26.223 58.423-58.5 58.5z" stroke="#0AC18E" stroke-width="5"/><path d="M284.4 198.2c-.1-1.2-.1-2.4-.2-3.6-.1-1.2-.2-2.3-.3-3.5h-12.1c-.6 1.1-1.3 2.3-2 3.5-.7 1.2-1.3 2.3-2 3.6h-7.5c2-3.5 3.9-6.7 5.6-9.6 1.8-2.9 3.4-5.7 5.1-8.3 1.7-2.6 3.2-5.1 4.8-7.4 1.6-2.3 3.1-4.6 4.7-6.9h6.5c.5 2.2 1 4.7 1.4 7.4.4 2.7.9 5.5 1.3 8.3.4 2.8.7 5.7 1.1 8.5.3 2.8.6 5.5.9 8h-7.3zm-2.2-25.2c-1.3 2.1-2.6 4.1-3.8 6.2a64.6 64.6 0 0 0-3.6 6.3h8.7c-.2-1.9-.3-3.9-.5-6-.2-2.2-.5-4.3-.8-6.5zM318.6 196.8a26.054 26.054 0 0 1-4.2 1.5 23.164 23.164 0 0 1-5.7.6 13.174 13.174 0 0 1-5.3-1 10.5 10.5 0 0 1-4.1-2.7 12.383 12.383 0 0 1-2.6-4.3 17.044 17.044 0 0 1-.9-5.7 20.3 20.3 0 0 1 1.3-7.2 19.751 19.751 0 0 1 3.8-6.4 20.017 20.017 0 0 1 6.1-4.6 18.422 18.422 0 0 1 8.3-1.8c1.48.012 2.955.18 4.4.5 1.587.354 3.107.962 4.5 1.8l-2.6 5.6a18.152 18.152 0 0 0-3.5-1.4 16.512 16.512 0 0 0-3.3-.4 10.61 10.61 0 0 0-4.8 1.1 11.237 11.237 0 0 0-3.6 2.9 11.837 11.837 0 0 0-2.3 4.3 17.037 17.037 0 0 0-.8 5.1c0 2.7.6 4.7 1.8 6a6.944 6.944 0 0 0 5.1 1.9c1.382 0 2.759-.168 4.1-.5a18.017 18.017 0 0 0 3.5-1.2l.8 5.9zM346.7 196.8a26.054 26.054 0 0 1-4.2 1.5 23.164 23.164 0 0 1-5.7.6 13.174 13.174 0 0 1-5.3-1 10.5 10.5 0 0 1-4.1-2.7 12.4 12.4 0 0 1-2.6-4.3 17.044 17.044 0 0 1-.9-5.7 20.3 20.3 0 0 1 1.3-7.2 19.751 19.751 0 0 1 3.8-6.4 20.017 20.017 0 0 1 6.1-4.6 18.422 18.422 0 0 1 8.3-1.8c1.48.013 2.955.18 4.4.5 1.587.354 3.107.962 4.5 1.8l-2.6 5.6a18.152 18.152 0 0 0-3.5-1.4 16.512 16.512 0 0 0-3.3-.4 10.61 10.61 0 0 0-4.8 1.1 11.237 11.237 0 0 0-3.6 2.9 11.837 11.837 0 0 0-2.3 4.3 17.005 17.005 0 0 0-.8 5.1c0 2.7.6 4.7 1.8 6a6.567 6.567 0 0 0 5.1 1.9c1.382 0 2.759-.168 4.1-.5a18.017 18.017 0 0 0 3.5-1.2l.8 5.9zM350.7 198.2l7.7-32.2h21.1l-1.5 6h-13.8l-1.5 6.5h12.2l-1.4 5.9h-12.2l-1.9 7.9h14.9l-1.5 6h-22.1zM394.2 165.6a21.45 21.45 0 0 1 5.3.6c1.438.334 2.797.945 4 1.8a8.616 8.616 0 0 1 2.5 2.9 8.023 8.023 0 0 1 .9 3.9c.03 2.04-.416 4.06-1.3 5.9a10.64 10.64 0 0 1-3.7 3.9 15.543 15.543 0 0 1-5.6 2.1c-2.306.45-4.65.685-7 .7h-1.8l-2.6 10.8h-7.2l7.6-31.8c1.7-.3 3.3-.5 4.8-.7 1.4 0 2.8-.1 4.1-.1zm-.6 6.1h-1.3c-.4 0-.7.1-1.1.1l-2.2 9.5h1.8a20.11 20.11 0 0 0 3.6-.3 6.626 6.626 0 0 0 2.7-1 6.152 6.152 0 0 0 1.8-1.8 5.4 5.4 0 0 0 .6-2.7 3.222 3.222 0 0 0-1.5-3 10.483 10.483 0 0 0-4.4-.8zM437.5 166l-1.5 6.1h-9.4l-6.3 26.1H413l6.3-26.1h-9.4l1.5-6.1zM433.6 198.2l7.7-32.2h21.1l-1.5 6h-13.8l-1.5 6.5h12.2l-1.4 5.9h-12.2l-1.9 7.9h14.9l-1.5 6h-22.1zM492.2 178.5a22.43 22.43 0 0 1-1.5 8.4 16.675 16.675 0 0 1-4.4 6.3 20.713 20.713 0 0 1-7 4 29.314 29.314 0 0 1-9.3 1.4c-1.3 0-2.8-.1-4.5-.2-1.7-.2-3.3-.4-4.9-.7l7.5-31.1c1.8-.3 3.5-.6 5.1-.7 1.6-.1 3.1-.2 4.4-.2 2.1-.025 4.193.279 6.2.9 1.71.557 3.28 1.478 4.6 2.7a10.947 10.947 0 0 1 2.9 4.1 16 16 0 0 1 .9 5.1zm-23.1 13.9c.3 0 .7.1 1 .1h1.5a16.264 16.264 0 0 0 5.5-.9 9.814 9.814 0 0 0 4.1-2.7 12.383 12.383 0 0 0 2.6-4.3c.622-1.835.926-3.763.9-5.7a9.488 9.488 0 0 0-.4-3 5.5 5.5 0 0 0-1.4-2.3 6.958 6.958 0 0 0-2.5-1.5 12.491 12.491 0 0 0-3.6-.5c-.934-.017-1.87.017-2.8.1l-4.9 20.7zM530.3 166h7.3l-7.8 32.2h-7.3l3.3-13.7h-11.4l-3.3 13.7h-7.2l7.7-32.2h7.3l-3 12.4h11.4zM536.4 198.2l7.7-32.2h21.1l-1.5 6h-13.8l-1.5 6.5h12.2l-1.4 5.9H547l-1.9 7.9H560l-1.5 6h-22.1zM580.1 165.6a17.273 17.273 0 0 1 5.4.7 12.98 12.98 0 0 1 3.9 2 7.558 7.558 0 0 1 2.3 3 8.578 8.578 0 0 1 .7 3.6 15.27 15.27 0 0 1-.3 3 7.9 7.9 0 0 1-1.3 2.8 10.4 10.4 0 0 1-2.6 2.5 12.992 12.992 0 0 1-4.1 1.9 48.01 48.01 0 0 1 2.7 5.9c.9 2.3 1.8 4.7 2.6 7.2h-7.8c-.7-2.1-1.4-4.3-2.2-6.3a27.279 27.279 0 0 0-2.4-5.4h-3.6l-2.8 11.8h-7.2l7.6-31.8c1.7-.3 3.3-.5 4.9-.7 1.5-.1 2.9-.2 4.2-.2zm-.2 6.1h-1.6c-.6 0-1 .1-1.4.1l-2.1 8.8h2.5a14.3 14.3 0 0 0 3.8-.4 11.73 11.73 0 0 0 2.5-1.1 3.845 3.845 0 0 0 1.3-1.6c.274-.56.411-1.177.4-1.8a7.664 7.664 0 0 0-.2-1.5 2.576 2.576 0 0 0-.8-1.3 3.545 3.545 0 0 0-1.6-.9c-.926-.16-1.861-.26-2.8-.3zM593.2 198.2l7.7-32.2H622l-1.5 6h-13.8l-1.5 6.5h12.2l-1.4 5.9h-12.2l-1.9 7.9h14.9l-1.5 6h-22.1zM198.343 137.583c-3.673 0-7.362-.107-10.99-.351a80.61 80.61 0 0 1-11.386-1.585V70.561a96.649 96.649 0 0 1 10.2-1.3c3.673-.3 7.103-.447 10.288-.442 3.948-.032 7.89.284 11.783.945a27.72 27.72 0 0 1 9.252 3.125 16.384 16.384 0 0 1 6.067 5.869 17.251 17.251 0 0 1 2.2 8.947c0 5.365-2.586 9.592-7.759 12.682 4.283 1.585 7.164 3.826 8.7 6.569a19.109 19.109 0 0 1 2.332 9.39c0 7.057-2.592 12.331-7.713 15.867-5.217 3.632-12.817 5.37-22.974 5.37zm-7.651-41.613h7.362c4.679 0 7.956-.594 10-1.783a6.235 6.235 0 0 0 2.987-5.762c0-2.728-1.036-4.618-3.079-5.716-2.088-1.097-5.121-1.646-9.1-1.646-1.3 0-2.683 0-4.177.046-1.494.046-2.789.107-3.978.244-.015 0-.015 14.617-.015 14.617zm0 11.539v17.346c1.1.153 2.286.244 3.582.3 1.296.056 2.728.107 4.283.107a26.122 26.122 0 0 0 10.944-1.936c2.789-1.3 4.176-3.674 4.176-7.164 0-3.079-1.143-5.32-3.475-6.615-2.332-1.342-5.67-1.982-10-1.982h-9.5v-.065l-.01.009zM250.549 71.064a7.886 7.886 0 0 1-2.591 6.265 9.193 9.193 0 0 1-12.133 0 8.02 8.02 0 0 1-2.591-6.265 7.886 7.886 0 0 1 2.591-6.265 8.928 8.928 0 0 1 6.066-2.286 8.8 8.8 0 0 1 6.067 2.286 7.935 7.935 0 0 1 2.591 6.265zm-1.387 65.68h-14.419V85.773h14.419v50.971zM256.921 73.091l14.419-2.332v15.014h17.346V97.8H271.34v17.894a14.478 14.478 0 0 0 1.585 7.256c1.037 1.783 3.232 2.728 6.463 2.728a27.46 27.46 0 0 0 4.771-.442c1.537-.28 3.05-.677 4.527-1.189l2.043 11.234a39.736 39.736 0 0 1-5.823 1.844c-2.578.564-5.212.83-7.85.793a26.6 26.6 0 0 1-9.8-1.585 14.691 14.691 0 0 1-6.219-4.482 16.466 16.466 0 0 1-3.231-6.9 42.114 42.114 0 0 1-.945-8.994V73.091h.06zM290.729 111.274a29.968 29.968 0 0 1 1.783-10.395 24.285 24.285 0 0 1 13.413-14.268 26.706 26.706 0 0 1 11.036-2.134 34.069 34.069 0 0 1 7.454.747 37.453 37.453 0 0 1 6.569 2.089L328 98.851a38.66 38.66 0 0 0-4.482-1.341 22.674 22.674 0 0 0-5.426-.595c-4.283 0-7.454 1.342-9.542 3.979s-3.125 6.112-3.125 10.441c0 4.573.991 8.155 2.927 10.639 1.982 2.531 5.426 3.78 10.289 3.78a32.53 32.53 0 0 0 5.624-.5 23.816 23.816 0 0 0 5.518-1.539l2.043 11.828a33.638 33.638 0 0 1-6.311 1.844c-2.752.537-5.55.803-8.353.793a31.383 31.383 0 0 1-12.026-2.088 22.723 22.723 0 0 1-8.307-5.67 21.593 21.593 0 0 1-4.726-8.46 42.451 42.451 0 0 1-1.374-10.688z" fill="#0AC18E"/><path d="M381.513 111.182a33.588 33.588 0 0 1-1.737 10.99 23.523 23.523 0 0 1-5.015 8.506 22.877 22.877 0 0 1-7.911 5.472 28.19 28.19 0 0 1-20.532 0 22.792 22.792 0 0 1-7.91-5.472 24.455 24.455 0 0 1-5.122-8.506 31.157 31.157 0 0 1-1.844-10.99 30.535 30.535 0 0 1 1.89-10.944 24.331 24.331 0 0 1 5.213-8.4 23.51 23.51 0 0 1 7.956-5.427 25.613 25.613 0 0 1 10.045-1.936c3.474-.038 6.92.62 10.136 1.936a22.682 22.682 0 0 1 7.911 5.427 24.263 24.263 0 0 1 5.122 8.4 32.707 32.707 0 0 1 1.798 10.944zm-14.709 0c0-4.481-.9-7.956-2.682-10.486a9.519 9.519 0 0 0-15.258 0c-1.784 2.53-2.729 6.066-2.729 10.486 0 4.482.9 8 2.729 10.594a9.366 9.366 0 0 0 15.258 0c1.785-2.637 2.677-6.169 2.678-10.594h.004zM403.1 71.064a7.886 7.886 0 0 1-2.591 6.265 9.193 9.193 0 0 1-12.133 0 8.021 8.021 0 0 1-2.592-6.265 7.889 7.889 0 0 1 2.592-6.265 8.928 8.928 0 0 1 6.066-2.286 8.8 8.8 0 0 1 6.067 2.286 7.939 7.939 0 0 1 2.591 6.265zm-1.341 65.68h-14.42V85.773h14.42v50.971zM409.956 87.511a78.462 78.462 0 0 1 9.5-1.982 80.49 80.49 0 0 1 12.179-.945 29.43 29.43 0 0 1 10.792 1.692 16.2 16.2 0 0 1 6.813 4.771 18.562 18.562 0 0 1 3.582 7.362 39.751 39.751 0 0 1 1.037 9.5V136.7h-14.42v-27.057c0-4.679-.594-7.957-1.844-9.892-1.25-1.935-3.536-2.881-6.859-2.881-1.037 0-2.134.045-3.277.152-1.143.107-2.195.2-3.079.351V136.7h-14.42V87.511h-.004zM493.287 138.086c-10.944 0-19.236-3.034-24.952-9.1-5.716-6.066-8.551-14.664-8.551-25.852a39.88 39.88 0 0 1 2.637-14.861c1.589-4.14 4.03-7.9 7.164-11.036a30.126 30.126 0 0 1 10.838-6.813 39.308 39.308 0 0 1 13.677-2.332 41.95 41.95 0 0 1 7.759.64c2.068.343 4.11.826 6.112 1.448 1.5.45 2.963 1.016 4.375 1.692 1.143.594 1.981 1.036 2.53 1.341L510.5 85.392a35.7 35.7 0 0 0-7.21-2.789 33.743 33.743 0 0 0-9.343-1.144c-2.319.005-4.62.391-6.814 1.144a16.031 16.031 0 0 0-5.914 3.734 19.155 19.155 0 0 0-4.131 6.615 27.948 27.948 0 0 0-1.539 9.893c-.009 2.915.324 5.82.991 8.658a18.961 18.961 0 0 0 3.277 6.9 15.914 15.914 0 0 0 5.96 4.619 20.938 20.938 0 0 0 8.9 1.692 42.7 42.7 0 0 0 5.914-.4c1.58-.21 3.143-.525 4.68-.945 1.22-.312 2.417-.71 3.582-1.189 1.036-.442 1.981-.9 2.789-1.25l4.177 12.133a35.37 35.37 0 0 1-8.993 3.475 53.51 53.51 0 0 1-13.539 1.548zM538.436 84.432c3.6-.086 7.192.403 10.639 1.448a15.828 15.828 0 0 1 6.814 4.176 15.434 15.434 0 0 1 3.627 6.57 32.947 32.947 0 0 1 1.037 8.6v30.028c-2.088.442-4.923.99-8.6 1.585a84.835 84.835 0 0 1-13.368.945 41.127 41.127 0 0 1-8.947-.9 20.053 20.053 0 0 1-6.9-2.835 13.354 13.354 0 0 1-4.481-5.167 17.788 17.788 0 0 1-1.54-7.85 14.953 14.953 0 0 1 1.784-7.56 13.324 13.324 0 0 1 4.771-4.923 20.929 20.929 0 0 1 6.859-2.683 38.728 38.728 0 0 1 8.048-.839c1.89 0 3.536.107 4.969.244a18.3 18.3 0 0 1 3.536.641v-1.342a8.012 8.012 0 0 0-2.24-5.914c-1.494-1.494-4.07-2.241-7.759-2.241-2.428.007-4.853.19-7.255.549-2.12.277-4.205.778-6.219 1.494l-1.845-11.63c.839-.244 1.89-.549 3.125-.838a63.301 63.301 0 0 1 4.131-.793c1.494-.244 3.033-.4 4.679-.595 1.751-.064 3.443-.17 5.135-.17zm1.143 42.206c1.448 0 2.789-.045 4.07-.106 1.033-.02 2.062-.12 3.079-.3v-10.949a26.094 26.094 0 0 0-2.637-.4 24.454 24.454 0 0 0-3.186-.2 33.56 33.56 0 0 0-3.826.244 8.45 8.45 0 0 0-3.124.945 5.327 5.327 0 0 0-2.134 1.845 5.239 5.239 0 0 0-.793 2.88c0 2.241.747 3.826 2.286 4.68a11.8 11.8 0 0 0 6.265 1.361zM582.975 126.4c1.91.128 3.824-.142 5.624-.793a2.993 2.993 0 0 0 1.646-2.988 3.614 3.614 0 0 0-2.134-3.033 37.816 37.816 0 0 0-6.508-2.926 57.612 57.612 0 0 1-6.158-2.637 17.318 17.318 0 0 1-4.68-3.232 12.948 12.948 0 0 1-2.987-4.527 16.822 16.822 0 0 1-1.037-6.31 13.694 13.694 0 0 1 5.32-11.341c3.533-2.79 8.406-4.181 14.618-4.176a48.15 48.15 0 0 1 8.9.838 41.2 41.2 0 0 1 6.768 1.783l-2.53 11.234a46.966 46.966 0 0 0-5.472-1.539 30.284 30.284 0 0 0-6.616-.7c-4.527 0-6.767 1.249-6.767 3.78a3.7 3.7 0 0 0 .3 1.539c.264.524.658.972 1.144 1.3A15.4 15.4 0 0 0 584.8 104a33.675 33.675 0 0 0 3.826 1.585 60.781 60.781 0 0 1 7.85 3.476c1.81.96 3.455 2.199 4.877 3.673a11.818 11.818 0 0 1 2.531 4.375c.532 1.826.784 3.722.746 5.624 0 5.015-1.89 8.856-5.67 11.387-3.78 2.591-9.1 3.871-16 3.871a47.317 47.317 0 0 1-11.279-1.143 57.334 57.334 0 0 1-6.265-1.936l2.439-11.737a49.131 49.131 0 0 0 7.56 2.287 31.17 31.17 0 0 0 7.56.938zM609.985 136.744V63.9l14.415-2.332v24.419a33.79 33.79 0 0 1 3.734-.946 22.632 22.632 0 0 1 4.421-.442c3.507-.115 7.003.46 10.289 1.692a16.357 16.357 0 0 1 6.569 4.771 18.81 18.81 0 0 1 3.475 7.362 39.835 39.835 0 0 1 .991 9.5v28.793h-14.415v-27.074c0-4.679-.6-7.957-1.784-9.892-1.184-1.935-3.429-2.881-6.615-2.881a17.271 17.271 0 0 0-3.628.35 27.728 27.728 0 0 0-3.033.747V136.7h-14.419v.044zM128.163 139.309a47.464 47.464 0 0 0 0-77.737h35.671v77.737h-35.671zM53.487 100.434A47.38 47.38 0 0 0 73.712 139.3H38V61.572h35.712a47.38 47.38 0 0 0-20.225 38.862zM105.134 94.515l.024-.034.013-.015.018-.023.007-.012.017-.023.007-.012.018-.023.007-.012.017-.023.007-.012.014-.02.007-.013.015-.021.006-.012.015-.02.007-.013.015-.021.007-.011.014-.022.006-.012.015-.02.006-.012.016-.022.007-.012.015-.02.006-.013.011-.019.008-.012.011-.019.006-.012.011-.019.007-.012.011-.02v-.01l.012-.019v-.01l.011-.019v-.01l.011-.019v-.01l.011-.02v-.01l.011-.019v-.01l.008-.018v-.01l.012-.018.014-.03.027-.062a3.57 3.57 0 0 0 .235-2.193v-.01a.3.3 0 0 1-.016-.061l-.01-.019a.512.512 0 0 0-.017-.095c-.007-.03-.016-.055-.025-.086l-.011-.021-.019-.059V91.1a3.576 3.576 0 0 0-1.263-1.81c-.02-.011-.037-.027-.056-.038l-.026-.016-.019-.011h-.007l-.016-.013h-.007l-.013-.026h-.007l-.019-.012h-.007l-.019-.011h-.007l-.019-.011-.009-.008-.019-.011-.012-.007-.019-.011-.013-.007-.018-.011-.012-.006-.019-.011-.013-.007-.019-.012-.012-.006-.021-.015-.012-.006-.021-.014-.012-.008-.021-.012-.012-.007-.024-.012-.013-.007-.024-.012v-.025l-.025-.012-.012-.006-.024-.013-.012-.008-.029-.016-.012-.006-.025-.013-.011-.006-.024-.014-.012-.006-.025-.013-.012-.006-.026-.018-.017-.008-.041-.017a6.219 6.219 0 0 0-4.21-.326c-.962.25-3.877.982-4.58 1.163l2.174 8.407c.7-.182 3.614-.944 4.581-1.191a6.209 6.209 0 0 0 3.527-2.313zM111.035 103.94a.311.311 0 0 0-.014-.066l-.012-.02c0-.047 0-.084-.012-.087l-.024-.094-.012-.021-.02-.061-.007-.014a3.692 3.692 0 0 0-1.444-1.934c-.022-.014-.046-.026-.067-.042l-.027-.019-.022-.016-.012-.006-.018-.012-.012-.006-.022-.015-.012-.006-.02-.015-.012-.007-.021-.015-.012-.007-.021-.014-.013-.006-.02-.016-.012-.006-.031-.033-.012-.006-.024-.014-.013-.006-.023-.013-.012-.006-.025-.013-.012-.006-.024-.014-.012-.006-.025-.013-.012-.006-.024-.013-.012-.006-.024-.014-.012-.006-.025-.012-.012-.007-.03-.014-.012-.006-.028-.015-.013-.007-.029-.014-.012-.006-.03-.014-.015-.006-.03-.014h-.015l-.029-.014h-.016l-.032-.013-.023-.009-.044-.02a7.852 7.852 0 0 0-4.957-.253c-1.141.294-4.6 1.162-5.432 1.379l2.341 9.129c.839-.214 4.284-1.115 5.424-1.41a7.824 7.824 0 0 0 4.221-2.613l.031-.038.017-.017.019-.028.01-.014.019-.028.01-.013.02-.029.009-.013.021-.028.009-.014.02-.027.009-.015.016-.026.011-.013.015-.027.006-.012.016-.025.007-.013.016-.026.006-.011.018-.024.006-.012.019-.022.006-.013.015-.02.006-.012.015-.022.007-.012.015-.02.006-.012.015-.022.006-.011.015-.021.007-.012.014-.021.007-.012.015-.021.006-.012.017-.021.006-.012.014-.021.007-.012.011-.019.006-.012.012-.02.007-.012.012-.023.018-.032.037-.067c.379-.74.496-1.585.333-2.4l-.002-.012z" fill="#0AC18E"/><path d="M100.918 61.579a38.837 38.837 0 1 0 38.835 38.837 38.837 38.837 0 0 0-38.835-38.837zm17.944 45.676c-.017.043-.037.084-.056.129l-.026.057-.019.045-.008.017-.018.04-.011.018-.017.04-.011.019-.022.042-.011.019-.02.041-.011.019-.022.042-.011.019-.02.041-.012.02-.021.041-.011.02-.02.04-.011.024-.024.043-.009.022-.025.043-.012.024-.024.044-.014.024-.024.043-.012.024-.028.045-.013.025-.027.044-.014.025-.025.049-.012.023-.027.049-.012.024-.03.05-.012.025-.029.05-.013.024-.029.05-.015.026-.03.05-.016.027-.033.052-.015.025-.032.052-.025.035-.051.074a12 12 0 0 1-7.024 4.811l-1.719.446 1.786 6.948-4.131 1.063-1.784-6.922-3.306.848 1.78 6.922-4.133 1.062-1.8-6.9-8.514 2.187-.177-5.242 3.01-.775a1.425 1.425 0 0 0 1.018-1.73l-4.762-18.539a2.129 2.129 0 0 0-2.589-1.527l-3.434.883-1.134-4.408 8.524-2.193-1.778-6.922 4.133-1.06 1.779 6.895 3.306-.846-1.777-6.922 4.133-1.06 1.784 6.945.7-.181a10.651 10.651 0 0 1 7.526.738l.072.039.035.015.049.025.023.014.049.025.025.013.044.028.025.012.045.028.021.015.042.023.021.015.043.024.021.015.043.024.019.011.043.024.019.011.04.027.019.011.04.026.019.011.039.023.018.011.039.023.02.012.039.022.018.013.039.022.019.011.035.025.018.011.035.024.019.011.035.025.015.013.036.025.015.013.035.024.015.013.032.02.015.013.029.023.016.014.029.022.015.013.036.025.043.032c.031.028.067.052.1.078a7.049 7.049 0 0 1 2.307 3.453l.035.11v.008l.02.036c.015.052.033.108.044.162.011.054.028.11.041.164l.016.03v.008c.011.037.019.076.027.115v.007a7.032 7.032 0 0 1-.358 4.137c-.018.039-.031.077-.049.117l-.024.052-.017.039-.009.018-.015.034-.008.018-.015.033-.008.017-.016.035-.008.017-.019.037-.008.017-.02.036-.008.017-.019.037-.008.017-.02.036-.011.019-.019.037-.011.018-.023.039-.011.019-.022.038-.012.019-.021.042-.011.018-.02.042-.013.019-.02.041-.011.019-.025.044-.011.018-.024.044-.012.019-.024.043-.014.021-.025.043-.014.021-.027.045-.017.021-.027.045-.014.021-.028.045-.014.02-.029.046-.014.02-.027.045-.022.034-.046.067a9.74 9.74 0 0 1-.949 1.193c1.236.17 2.435.55 3.545 1.12.027.016.054.027.081.044l.036.019.053.027.027.017.053.027.026.015.05.029.026.016.05.029.025.013.05.028.024.014.05.028.024.013.049.026.024.013.045.028.025.013.045.027.02.015.046.027.02.014.045.028.021.015.045.028.021.014.042.029.021.016.039.025.022.014.039.027.022.014.039.026.021.015.023.035.02.012.039.025.055.081.037.028.019.011.037.028.015.013.035.024.015.013.035.025.015.013.037.028.05.037.111.087a7.935 7.935 0 0 1 2.594 3.88v.007c.015.044.026.087.038.127v.007l.021.039c0 .072.012.136.011.172.019.058.031.122.047.183l.007.013v.009l.03.126a7.941 7.941 0 0 1-.343 4.75z" fill="#0AC18E"/></g></svg>